<?xml version="1.0" encoding="UTF-8"?>
<svg xmlns="http://www.w3.org/2000/svg" version="1.1" xmlns:xlink="http://www.w3.org/1999/xlink" viewBox="0 0 1000 1000">
  <!-- Generator: Adobe Illustrator 29.5.0, SVG Export Plug-In . SVG Version: 2.1.0 Build 137)  -->
  <defs>
    <style>
      .st0 {
        stroke: url(#_Безымянный_градиент_106);
      }

      .st0, .st1, .st2, .st3, .st4, .st5, .st6, .st7, .st8, .st9, .st10, .st11 {
        stroke-miterlimit: 10;
      }

      .st0, .st1, .st2, .st4, .st6, .st7, .st8, .st9, .st10, .st11 {
        fill: none;
        stroke-width: 18px;
      }

      .st1 {
        stroke: url(#_Безымянный_градиент_101);
      }

      .st2 {
        stroke: url(#_Безымянный_градиент_109);
      }

      .st3 {
        fill: #06001f;
        stroke: #055c00;
      }

      .st4 {
        stroke: url(#_Безымянный_градиент_102);
      }

      .st5 {
        fill: #fff;
        fill-rule: evenodd;
        stroke: #00062e;
        stroke-width: 5px;
      }

      .st6 {
        stroke: url(#_Безымянный_градиент_10);
      }

      .st7 {
        stroke: url(#_Безымянный_градиент_103);
      }

      .st12 {
        display: none;
      }

      .st8 {
        stroke: url(#_Безымянный_градиент_104);
      }

      .st9 {
        stroke: url(#_Безымянный_градиент_108);
      }

      .st10 {
        stroke: url(#_Безымянный_градиент_105);
      }

      .st11 {
        stroke: url(#_Безымянный_градиент_107);
      }
    </style>
    <linearGradient id="_Безымянный_градиент_10" data-name="Безымянный градиент 10" x1="220.61" y1="521.77" x2="523.26" y2="521.77" gradientUnits="userSpaceOnUse">
      <stop offset="0" stop-color="#fff"/>
      <stop offset="0" stop-color="#fff"/>
      <stop offset="1" stop-color="#1d1d1b"/>
    </linearGradient>
    <linearGradient id="_Безымянный_градиент_101" data-name="Безымянный градиент 10" x1="517.72" y1="521.71" x2="820.35" y2="521.71" xlink:href="#_Безымянный_градиент_10"/>
    <linearGradient id="_Безымянный_градиент_102" data-name="Безымянный градиент 10" x1="345.67" y1="521.71" x2="526.85" y2="521.71" xlink:href="#_Безымянный_градиент_10"/>
    <linearGradient id="_Безымянный_градиент_103" data-name="Безымянный градиент 10" x1="514.14" y1="522.28" x2="696.22" y2="522.28" xlink:href="#_Безымянный_градиент_10"/>
    <linearGradient id="_Безымянный_градиент_104" data-name="Безымянный градиент 10" x1="214.57" y1="280.19" x2="826.42" y2="280.19" xlink:href="#_Безымянный_градиент_10"/>
    <linearGradient id="_Безымянный_градиент_105" data-name="Безымянный градиент 10" x1="149.52" y1="388.99" x2="891.46" y2="388.99" xlink:href="#_Безымянный_градиент_10"/>
    <linearGradient id="_Безымянный_градиент_106" data-name="Безымянный градиент 10" x1="123.98" y1="521.71" x2="917" y2="521.71" xlink:href="#_Безымянный_градиент_10"/>
    <linearGradient id="_Безымянный_градиент_107" data-name="Безымянный градиент 10" x1="149.66" y1="655.91" x2="891.32" y2="655.91" xlink:href="#_Безымянный_градиент_10"/>
    <linearGradient id="_Безымянный_градиент_108" data-name="Безымянный градиент 10" x1="222.31" y1="764.68" x2="826.28" y2="764.68" xlink:href="#_Безымянный_градиент_10"/>
    <linearGradient id="_Безымянный_градиент_109" data-name="Безымянный градиент 10" x1="111.16" y1="521.71" x2="929.82" y2="521.71" xlink:href="#_Безымянный_градиент_10"/>
  </defs>
  <g id="_Слой_5" data-name="Слой_5" class="st12">
    <rect class="st3" x="-23" y="-9" width="1046" height="1029"/>
  </g>
  <g id="_Слой_2" data-name="Слой_2">
    <path class="st6" d="M520.48,121.42c-387.83,126.01-387.83,674.68,0,800.69"/>
    <path class="st1" d="M520.5,121.39c387.8,126,387.8,674.64,0,800.64"/>
    <path class="st4" d="M520.49,121.38c-221.09,221.09-221.09,579.55,0,800.65"/>
    <path class="st7" d="M521.81,923.22c221.35-222.3,220.18-581.3-1.32-801.85"/>
  </g>
  <g id="_Слой_3" data-name="Слой_3">
    <path class="st8" d="M824.18,260.86c-199.23,51.15-408.15,51.15-607.38,0"/>
    <path class="st10" d="M151.76,365.55c241.9,62.11,495.57,62.11,737.46,0"/>
    <line class="st0" x1="123.98" y1="521.71" x2="917" y2="521.71"/>
    <path class="st11" d="M151.76,677.86c242.38-58.19,495.09-58.19,737.46,0"/>
    <path class="st9" d="M224.41,782.55c197.12-47.33,402.65-47.33,599.78,0"/>
    <circle class="st2" cx="520.49" cy="521.71" r="400.33"/>
  </g>
  <g id="_Слой_4" data-name="Слой_4">
    <g id="_x36_4px-Line">
      <path id="Shape" class="st5" d="M524.65,699.84c9.16,0,16.59-7.43,16.59-16.59v-49.77h98.93l134.9,289.06c2.77,5.92,8.69,9.57,15.03,9.57,1.19,0,2.41-.13,3.6-.4,7.6-1.69,12.99-8.41,12.99-16.19v-132.73c0-2.42-.53-4.79-1.54-6.98l-66.08-142.33h84.22c9.16,0,16.59-7.43,16.59-16.59s-7.43-16.59-16.59-16.59h-99.63l-111.19-239.47c17.59-20.37,28.3-46.8,28.3-75.75,0-58.4-43.35-106.73-99.55-114.81V52.8c0-9.16-7.43-16.59-16.59-16.59s-16.59,7.43-16.59,16.59v117.46c-56.19,8.08-99.55,56.41-99.55,114.81,0,28.95,10.72,55.4,28.3,75.75l-111.16,239.47h-99.63c-9.16,0-16.59,7.43-16.59,16.59s7.43,16.59,16.59,16.59h84.22l-66.08,142.33c-1.01,2.19-1.54,4.56-1.54,6.98v132.73c0,7.78,5.41,14.52,12.99,16.19,1.21.27,2.42.4,3.6.4,6.34,0,12.26-3.65,15.03-9.57l134.9-289.06h98.93v49.77c0,9.16,7.43,16.59,16.59,16.59h0ZM767.24,831.76l-203.29-435.64c7.33-2.72,14.3-6.16,20.83-10.29l108.63,233.99s.02.02.02.03l73.81,158.99v52.92h0ZM524.65,209.23c44.59,0,80.86,36.28,80.86,80.86s-36.28,80.86-80.86,80.86-80.86-36.28-80.86-80.86,36.28-80.86,80.86-80.86h0ZM282.06,778.84l182.46-393c6.53,4.11,13.49,7.55,20.83,10.29l-203.29,435.61v-52.9h0ZM427.13,597.37l90.73-194.41c2.26.15,4.5.34,6.79.34s4.53-.21,6.79-.34l90.73,194.41h-81.35v-48.52c0-8.93-7.25-16.17-16.17-16.17s-16.17,7.25-16.17,16.17v48.52h-81.35Z"/>
    </g>
  </g>
</svg>